<svg width="138" height="34" viewBox="0 0 138 34" fill="none" xmlns="http://www.w3.org/2000/svg">
<rect x="0.5" y="0.5" width="137" height="33" rx="4.5" fill="#EB5757" fill-opacity="0.1"/>
<path d="M24 12.3333V21.6667" stroke="#EB5757" stroke-width="2" stroke-linecap="round" stroke-linejoin="round"/>
<path d="M19.3333 17H28.6666" stroke="#EB5757" stroke-width="2" stroke-linecap="round" stroke-linejoin="round"/>
<path d="M41.8374 22H40.3232L43.7255 12.5455H45.3736L48.7759 22H47.2617L44.5888 14.2628H44.5149L41.8374 22ZM42.0913 18.2976H47.0032V19.4979H42.0913V18.2976ZM52.5707 22.1385C51.9982 22.1385 51.4873 21.9923 51.038 21.6999C50.5917 21.4045 50.2409 20.9844 49.9854 20.4396C49.7331 19.8918 49.6069 19.2347 49.6069 18.4684C49.6069 17.7021 49.7346 17.0465 49.9901 16.5018C50.2486 15.957 50.6025 15.54 51.0518 15.2507C51.5012 14.9614 52.0105 14.8168 52.5799 14.8168C53.02 14.8168 53.3739 14.8906 53.6417 15.0384C53.9125 15.183 54.1218 15.3523 54.2695 15.5462C54.4203 15.7401 54.5373 15.9109 54.6204 16.0586H54.7035V12.5455H56.0838V22H54.7358V20.8967H54.6204C54.5373 21.0475 54.4173 21.2198 54.2603 21.4137C54.1064 21.6076 53.8941 21.7769 53.6232 21.9215C53.3524 22.0662 53.0015 22.1385 52.5707 22.1385ZM52.8754 20.9613C53.2724 20.9613 53.6078 20.8567 53.8817 20.6474C54.1587 20.435 54.368 20.1411 54.5096 19.7656C54.6542 19.3902 54.7266 18.9531 54.7266 18.4545C54.7266 17.9621 54.6558 17.5312 54.5142 17.1619C54.3726 16.7926 54.1649 16.5049 53.891 16.2987C53.6171 16.0924 53.2785 15.9893 52.8754 15.9893C52.4599 15.9893 52.1136 16.0971 51.8366 16.3125C51.5597 16.5279 51.3504 16.8219 51.2088 17.1942C51.0703 17.5666 51.0011 17.9867 51.0011 18.4545C51.0011 18.9285 51.0719 19.3548 51.2134 19.7333C51.355 20.1119 51.5643 20.4119 51.8413 20.6335C52.1213 20.852 52.466 20.9613 52.8754 20.9613ZM60.7084 22.1385C60.1359 22.1385 59.625 21.9923 59.1757 21.6999C58.7294 21.4045 58.3786 20.9844 58.1231 20.4396C57.8708 19.8918 57.7446 19.2347 57.7446 18.4684C57.7446 17.7021 57.8723 17.0465 58.1278 16.5018C58.3863 15.957 58.7402 15.54 59.1895 15.2507C59.6389 14.9614 60.1482 14.8168 60.7176 14.8168C61.1577 14.8168 61.5116 14.8906 61.7794 15.0384C62.0502 15.183 62.2595 15.3523 62.4072 15.5462C62.558 15.7401 62.675 15.9109 62.7581 16.0586H62.8412V12.5455H64.2215V22H62.8735V20.8967H62.7581C62.675 21.0475 62.555 21.2198 62.398 21.4137C62.2441 21.6076 62.0318 21.7769 61.7609 21.9215C61.4901 22.0662 61.1392 22.1385 60.7084 22.1385ZM61.0131 20.9613C61.4101 20.9613 61.7455 20.8567 62.0194 20.6474C62.2964 20.435 62.5057 20.1411 62.6473 19.7656C62.7919 19.3902 62.8643 18.9531 62.8643 18.4545C62.8643 17.9621 62.7935 17.5312 62.6519 17.1619C62.5103 16.7926 62.3026 16.5049 62.0287 16.2987C61.7548 16.0924 61.4162 15.9893 61.0131 15.9893C60.5976 15.9893 60.2513 16.0971 59.9743 16.3125C59.6974 16.5279 59.4881 16.8219 59.3465 17.1942C59.208 17.5666 59.1388 17.9867 59.1388 18.4545C59.1388 18.9285 59.2095 19.3548 59.3511 19.7333C59.4927 20.1119 59.702 20.4119 59.979 20.6335C60.259 20.852 60.6037 20.9613 61.0131 20.9613ZM69.7428 22V12.5455H75.6704V13.7734H71.1693V16.6541H75.3611V17.8775H71.1693V20.772H75.7258V22H69.7428ZM78.5545 14.9091L80.1195 17.6697L81.6983 14.9091H83.2079L80.9966 18.4545L83.2264 22H81.7168L80.1195 19.3501L78.5268 22H77.0126L79.2193 18.4545L77.0403 14.9091H78.5545ZM84.6252 24.6591V14.9091H85.9732V16.0586H86.0886C86.1686 15.9109 86.284 15.7401 86.4348 15.5462C86.5856 15.3523 86.7949 15.183 87.0627 15.0384C87.3304 14.8906 87.6844 14.8168 88.1245 14.8168C88.6969 14.8168 89.2078 14.9614 89.6571 15.2507C90.1065 15.54 90.4589 15.957 90.7143 16.5018C90.9728 17.0465 91.1021 17.7021 91.1021 18.4684C91.1021 19.2347 90.9744 19.8918 90.7189 20.4396C90.4635 20.9844 90.1126 21.4045 89.6664 21.6999C89.2201 21.9923 88.7108 22.1385 88.1383 22.1385C87.7074 22.1385 87.3551 22.0662 87.0811 21.9215C86.8103 21.7769 86.598 21.6076 86.4441 21.4137C86.2902 21.2198 86.1717 21.0475 86.0886 20.8967H86.0055V24.6591H84.6252ZM85.9778 18.4545C85.9778 18.9531 86.0501 19.3902 86.1948 19.7656C86.3394 20.1411 86.5487 20.435 86.8226 20.6474C87.0965 20.8567 87.432 20.9613 87.829 20.9613C88.2414 20.9613 88.5861 20.852 88.8631 20.6335C89.1401 20.4119 89.3494 20.1119 89.4909 19.7333C89.6356 19.3548 89.7079 18.9285 89.7079 18.4545C89.7079 17.9867 89.6371 17.5666 89.4956 17.1942C89.3571 16.8219 89.1478 16.5279 88.8677 16.3125C88.5907 16.0971 88.2445 15.9893 87.829 15.9893C87.4289 15.9893 87.0904 16.0924 86.8134 16.2987C86.5395 16.5049 86.3317 16.7926 86.1902 17.1619C86.0486 17.5312 85.9778 17.9621 85.9778 18.4545ZM95.7047 22.1431C95.0061 22.1431 94.4044 21.9938 93.8997 21.6953C93.398 21.3937 93.0102 20.9705 92.7363 20.4258C92.4655 19.878 92.3301 19.2363 92.3301 18.5007C92.3301 17.7744 92.4655 17.1342 92.7363 16.5803C93.0102 16.0263 93.3919 15.5939 93.8812 15.283C94.3736 14.9722 94.9492 14.8168 95.6078 14.8168C96.0079 14.8168 96.3957 14.8829 96.7711 15.0153C97.1466 15.1476 97.4836 15.3554 97.7821 15.6385C98.0807 15.9216 98.3161 16.2894 98.4885 16.7418C98.6608 17.1912 98.747 17.7375 98.747 18.3807V18.87H93.1103V17.8359H97.3944C97.3944 17.4728 97.3205 17.1512 97.1728 16.8711C97.025 16.5879 96.8173 16.3648 96.5495 16.2017C96.2849 16.0386 95.974 15.957 95.617 15.957C95.2292 15.957 94.8907 16.0524 94.6014 16.2433C94.3152 16.431 94.0936 16.6772 93.9366 16.9819C93.7827 17.2835 93.7058 17.6113 93.7058 17.9652V18.7731C93.7058 19.247 93.7889 19.6502 93.9551 19.9826C94.1243 20.315 94.3598 20.5689 94.6614 20.7443C94.963 20.9167 95.3154 21.0028 95.7186 21.0028C95.9802 21.0028 96.2187 20.9659 96.4341 20.892C96.6496 20.8151 96.8358 20.7012 96.9927 20.5504C97.1497 20.3996 97.2697 20.2134 97.3528 19.9918L98.6593 20.2273C98.5546 20.612 98.3669 20.949 98.0961 21.2383C97.8283 21.5245 97.4913 21.7476 97.085 21.9077C96.6819 22.0646 96.2218 22.1431 95.7047 22.1431ZM101.659 17.7898V22H100.278V14.9091H101.603V16.0632H101.691C101.854 15.6877 102.11 15.3861 102.457 15.1584C102.808 14.9306 103.25 14.8168 103.782 14.8168C104.266 14.8168 104.689 14.9183 105.052 15.1214C105.415 15.3215 105.697 15.62 105.897 16.017C106.097 16.4141 106.197 16.9049 106.197 17.4897V22H104.816V17.6559C104.816 17.1419 104.683 16.7403 104.415 16.451C104.147 16.1586 103.779 16.0124 103.312 16.0124C102.991 16.0124 102.707 16.0817 102.457 16.2202C102.211 16.3587 102.016 16.5618 101.871 16.8295C101.73 17.0942 101.659 17.4143 101.659 17.7898ZM113.362 16.6403L112.111 16.8619C112.058 16.7018 111.975 16.5495 111.861 16.4048C111.75 16.2602 111.6 16.1417 111.409 16.0494C111.218 15.957 110.979 15.9109 110.693 15.9109C110.302 15.9109 109.976 15.9986 109.715 16.174C109.453 16.3464 109.322 16.5695 109.322 16.8434C109.322 17.0804 109.41 17.2712 109.585 17.4158C109.761 17.5605 110.044 17.679 110.435 17.7713L111.561 18.0298C112.214 18.1806 112.7 18.413 113.02 18.7269C113.34 19.0408 113.5 19.4486 113.5 19.9503C113.5 20.375 113.377 20.7536 113.131 21.0859C112.888 21.4152 112.548 21.6738 112.111 21.8615C111.677 22.0492 111.173 22.1431 110.601 22.1431C109.807 22.1431 109.159 21.9738 108.657 21.6353C108.156 21.2937 107.848 20.8089 107.734 20.1811L109.068 19.978C109.151 20.3258 109.322 20.5889 109.581 20.7674C109.839 20.9428 110.176 21.0305 110.592 21.0305C111.044 21.0305 111.406 20.9367 111.677 20.7489C111.947 20.5581 112.083 20.3258 112.083 20.0518C112.083 19.8303 112 19.6441 111.834 19.4933C111.67 19.3424 111.42 19.2286 111.081 19.1516L109.881 18.8885C109.219 18.7377 108.73 18.4976 108.413 18.1683C108.099 17.839 107.942 17.422 107.942 16.9173C107.942 16.4987 108.059 16.1325 108.293 15.8185C108.527 15.5046 108.85 15.2599 109.262 15.0845C109.675 14.906 110.147 14.8168 110.679 14.8168C111.446 14.8168 112.049 14.983 112.489 15.3153C112.929 15.6446 113.22 16.0863 113.362 16.6403ZM118.074 22.1431C117.375 22.1431 116.774 21.9938 116.269 21.6953C115.767 21.3937 115.379 20.9705 115.105 20.4258C114.835 19.878 114.699 19.2363 114.699 18.5007C114.699 17.7744 114.835 17.1342 115.105 16.5803C115.379 16.0263 115.761 15.5939 116.25 15.283C116.743 14.9722 117.318 14.8168 117.977 14.8168C118.377 14.8168 118.765 14.8829 119.14 15.0153C119.516 15.1476 119.853 15.3554 120.151 15.6385C120.45 15.9216 120.685 16.2894 120.858 16.7418C121.03 17.1912 121.116 17.7375 121.116 18.3807V18.87H115.479V17.8359H119.763C119.763 17.4728 119.69 17.1512 119.542 16.8711C119.394 16.5879 119.186 16.3648 118.919 16.2017C118.654 16.0386 118.343 15.957 117.986 15.957C117.598 15.957 117.26 16.0524 116.971 16.2433C116.684 16.431 116.463 16.6772 116.306 16.9819C116.152 17.2835 116.075 17.6113 116.075 17.9652V18.7731C116.075 19.247 116.158 19.6502 116.324 19.9826C116.493 20.315 116.729 20.5689 117.031 20.7443C117.332 20.9167 117.685 21.0028 118.088 21.0028C118.349 21.0028 118.588 20.9659 118.803 20.892C119.019 20.8151 119.205 20.7012 119.362 20.5504C119.519 20.3996 119.639 20.2134 119.722 19.9918L121.028 20.2273C120.924 20.612 120.736 20.949 120.465 21.2383C120.197 21.5245 119.86 21.7476 119.454 21.9077C119.051 22.0646 118.591 22.1431 118.074 22.1431Z" fill="#EB5757"/>
<rect x="0.5" y="0.5" width="137" height="33" rx="4.5" stroke="#EB5757"/>
</svg>
