<svg width="131" height="34" viewBox="0 0 131 34" fill="none" xmlns="http://www.w3.org/2000/svg">
<rect width="131" height="34" rx="5" fill="#F0F0FE"/>
<path d="M24 12.3333V21.6667" stroke="#6868F7" stroke-width="2" stroke-linecap="round" stroke-linejoin="round"/>
<path d="M19.3333 17H28.6667" stroke="#6868F7" stroke-width="2" stroke-linecap="round" stroke-linejoin="round"/>
<path d="M41.8374 22H40.3232L43.7255 12.5455H45.3736L48.7759 22H47.2617L44.5888 14.2628H44.5149L41.8374 22ZM42.0913 18.2976H47.0032V19.4979H42.0913V18.2976ZM52.5707 22.1385C51.9982 22.1385 51.4873 21.9923 51.038 21.6999C50.5917 21.4045 50.2409 20.9844 49.9854 20.4396C49.7331 19.8918 49.6069 19.2347 49.6069 18.4684C49.6069 17.7021 49.7346 17.0465 49.9901 16.5018C50.2486 15.957 50.6025 15.54 51.0518 15.2507C51.5012 14.9614 52.0105 14.8168 52.5799 14.8168C53.02 14.8168 53.3739 14.8906 53.6417 15.0384C53.9125 15.183 54.1218 15.3523 54.2695 15.5462C54.4203 15.7401 54.5373 15.9109 54.6204 16.0586H54.7035V12.5455H56.0838V22H54.7358V20.8967H54.6204C54.5373 21.0475 54.4173 21.2198 54.2603 21.4137C54.1064 21.6076 53.8941 21.7769 53.6232 21.9215C53.3524 22.0662 53.0015 22.1385 52.5707 22.1385ZM52.8754 20.9613C53.2724 20.9613 53.6078 20.8567 53.8817 20.6474C54.1587 20.435 54.368 20.1411 54.5096 19.7656C54.6542 19.3902 54.7266 18.9531 54.7266 18.4545C54.7266 17.9621 54.6558 17.5312 54.5142 17.1619C54.3726 16.7926 54.1649 16.5049 53.891 16.2987C53.6171 16.0924 53.2785 15.9893 52.8754 15.9893C52.4599 15.9893 52.1136 16.0971 51.8366 16.3125C51.5597 16.5279 51.3504 16.8219 51.2088 17.1942C51.0703 17.5666 51.0011 17.9867 51.0011 18.4545C51.0011 18.9285 51.0719 19.3548 51.2134 19.7333C51.355 20.1119 51.5643 20.4119 51.8413 20.6335C52.1213 20.852 52.466 20.9613 52.8754 20.9613ZM60.7084 22.1385C60.1359 22.1385 59.625 21.9923 59.1757 21.6999C58.7294 21.4045 58.3786 20.9844 58.1231 20.4396C57.8708 19.8918 57.7446 19.2347 57.7446 18.4684C57.7446 17.7021 57.8723 17.0465 58.1278 16.5018C58.3863 15.957 58.7402 15.54 59.1895 15.2507C59.6389 14.9614 60.1482 14.8168 60.7176 14.8168C61.1577 14.8168 61.5116 14.8906 61.7794 15.0384C62.0502 15.183 62.2595 15.3523 62.4072 15.5462C62.558 15.7401 62.675 15.9109 62.7581 16.0586H62.8412V12.5455H64.2215V22H62.8735V20.8967H62.7581C62.675 21.0475 62.555 21.2198 62.398 21.4137C62.2441 21.6076 62.0318 21.7769 61.7609 21.9215C61.4901 22.0662 61.1392 22.1385 60.7084 22.1385ZM61.0131 20.9613C61.4101 20.9613 61.7455 20.8567 62.0194 20.6474C62.2964 20.435 62.5057 20.1411 62.6473 19.7656C62.7919 19.3902 62.8643 18.9531 62.8643 18.4545C62.8643 17.9621 62.7935 17.5312 62.6519 17.1619C62.5103 16.7926 62.3026 16.5049 62.0287 16.2987C61.7548 16.0924 61.4162 15.9893 61.0131 15.9893C60.5976 15.9893 60.2513 16.0971 59.9743 16.3125C59.6974 16.5279 59.4881 16.8219 59.3465 17.1942C59.208 17.5666 59.1388 17.9867 59.1388 18.4545C59.1388 18.9285 59.2095 19.3548 59.3511 19.7333C59.4927 20.1119 59.702 20.4119 59.979 20.6335C60.259 20.852 60.6037 20.9613 61.0131 20.9613ZM71.1693 12.5455V22H69.7428V12.5455H71.1693ZM74.5162 17.7898V22H73.1359V14.9091H74.4608V16.0632H74.5486C74.7117 15.6877 74.9671 15.3861 75.3149 15.1584C75.6657 14.9306 76.1074 14.8168 76.6398 14.8168C77.123 14.8168 77.5462 14.9183 77.9094 15.1214C78.2725 15.3215 78.5541 15.62 78.7542 16.017C78.9542 16.4141 79.0542 16.9049 79.0542 17.4897V22H77.6739V17.6559C77.6739 17.1419 77.54 16.7403 77.2723 16.451C77.0045 16.1586 76.6367 16.0124 76.1689 16.0124C75.8489 16.0124 75.5642 16.0817 75.3149 16.2202C75.0687 16.3587 74.8733 16.5618 74.7286 16.8295C74.587 17.0942 74.5162 17.4143 74.5162 17.7898ZM83.8923 22.1431C83.206 22.1431 82.6151 21.9877 82.1196 21.6768C81.6272 21.3629 81.2486 20.9305 80.9839 20.3796C80.7193 19.8287 80.5869 19.1978 80.5869 18.4869C80.5869 17.7667 80.7223 17.1312 80.9932 16.5803C81.264 16.0263 81.6456 15.5939 82.1381 15.283C82.6305 14.9722 83.2106 14.8168 83.8785 14.8168C84.4171 14.8168 84.8972 14.9168 85.3188 15.1168C85.7404 15.3138 86.0805 15.5908 86.339 15.9478C86.6006 16.3048 86.7561 16.7218 86.8053 17.1989H85.4619C85.3881 16.8665 85.2188 16.5803 84.9541 16.3402C84.6925 16.1001 84.3416 15.9801 83.9015 15.9801C83.5168 15.9801 83.1798 16.0817 82.8905 16.2848C82.6043 16.4848 82.3812 16.7711 82.2211 17.1435C82.0611 17.5128 81.9811 17.9498 81.9811 18.4545C81.9811 18.9716 82.0596 19.4179 82.2165 19.7933C82.3735 20.1688 82.5951 20.4596 82.8813 20.6658C83.1706 20.872 83.5107 20.9751 83.9015 20.9751C84.1631 20.9751 84.4001 20.9274 84.6125 20.832C84.8279 20.7335 85.008 20.5935 85.1526 20.4119C85.3003 20.2304 85.4034 20.0118 85.4619 19.7564H86.8053C86.7561 20.215 86.6068 20.6243 86.3575 20.9844C86.1082 21.3445 85.7743 21.6276 85.3557 21.8338C84.9403 22.04 84.4524 22.1431 83.8923 22.1431ZM91.2683 22.1431C90.6035 22.1431 90.0234 21.9908 89.5279 21.6861C89.0324 21.3814 88.6477 20.9551 88.3738 20.4073C88.0998 19.8595 87.9629 19.2193 87.9629 18.4869C87.9629 17.7513 88.0998 17.1081 88.3738 16.5572C88.6477 16.0063 89.0324 15.5785 89.5279 15.2738C90.0234 14.9691 90.6035 14.8168 91.2683 14.8168C91.9331 14.8168 92.5132 14.9691 93.0087 15.2738C93.5042 15.5785 93.8889 16.0063 94.1628 16.5572C94.4367 17.1081 94.5737 17.7513 94.5737 18.4869C94.5737 19.2193 94.4367 19.8595 94.1628 20.4073C93.8889 20.9551 93.5042 21.3814 93.0087 21.6861C92.5132 21.9908 91.9331 22.1431 91.2683 22.1431ZM91.2729 20.9844C91.7038 20.9844 92.0608 20.8705 92.3439 20.6428C92.6271 20.415 92.8364 20.1119 92.9718 19.7333C93.1103 19.3548 93.1795 18.9377 93.1795 18.4822C93.1795 18.0298 93.1103 17.6143 92.9718 17.2358C92.8364 16.8542 92.6271 16.5479 92.3439 16.3171C92.0608 16.0863 91.7038 15.9709 91.2729 15.9709C90.839 15.9709 90.4789 16.0863 90.1926 16.3171C89.9095 16.5479 89.6987 16.8542 89.5602 17.2358C89.4248 17.6143 89.3571 18.0298 89.3571 18.4822C89.3571 18.9377 89.4248 19.3548 89.5602 19.7333C89.6987 20.1119 89.9095 20.415 90.1926 20.6428C90.4789 20.8705 90.839 20.9844 91.2729 20.9844ZM96.1144 22V14.9091H97.4394V16.0632H97.5271C97.6748 15.6723 97.9164 15.3677 98.2519 15.1491C98.5873 14.9276 98.989 14.8168 99.4568 14.8168C99.9307 14.8168 100.328 14.9276 100.648 15.1491C100.971 15.3707 101.209 15.6754 101.363 16.0632H101.437C101.607 15.6847 101.876 15.383 102.245 15.1584C102.614 14.9306 103.055 14.8168 103.565 14.8168C104.209 14.8168 104.733 15.0183 105.14 15.4215C105.549 15.8247 105.754 16.4325 105.754 17.245V22H104.373V17.3743C104.373 16.8942 104.243 16.5464 103.981 16.331C103.719 16.1155 103.407 16.0078 103.044 16.0078C102.594 16.0078 102.245 16.1463 101.996 16.4233C101.747 16.6972 101.622 17.0496 101.622 17.4805V22H100.246V17.2866C100.246 16.9019 100.126 16.5926 99.8861 16.3587C99.646 16.1248 99.3337 16.0078 98.949 16.0078C98.6874 16.0078 98.4458 16.0771 98.2242 16.2156C98.0057 16.351 97.8287 16.5402 97.6933 16.7834C97.5609 17.0265 97.4948 17.3081 97.4948 17.6282V22H96.1144ZM110.66 22.1431C109.961 22.1431 109.359 21.9938 108.855 21.6953C108.353 21.3937 107.965 20.9705 107.691 20.4258C107.421 19.878 107.285 19.2363 107.285 18.5007C107.285 17.7744 107.421 17.1342 107.691 16.5803C107.965 16.0263 108.347 15.5939 108.836 15.283C109.329 14.9722 109.904 14.8168 110.563 14.8168C110.963 14.8168 111.351 14.8829 111.726 15.0153C112.102 15.1476 112.439 15.3554 112.737 15.6385C113.036 15.9216 113.271 16.2894 113.444 16.7418C113.616 17.1912 113.702 17.7375 113.702 18.3807V18.87H108.065V17.8359H112.349C112.349 17.4728 112.276 17.1512 112.128 16.8711C111.98 16.5879 111.772 16.3648 111.505 16.2017C111.24 16.0386 110.929 15.957 110.572 15.957C110.184 15.957 109.846 16.0524 109.556 16.2433C109.27 16.431 109.049 16.6772 108.892 16.9819C108.738 17.2835 108.661 17.6113 108.661 17.9652V18.7731C108.661 19.247 108.744 19.6502 108.91 19.9826C109.079 20.315 109.315 20.5689 109.616 20.7443C109.918 20.9167 110.27 21.0028 110.674 21.0028C110.935 21.0028 111.174 20.9659 111.389 20.892C111.605 20.8151 111.791 20.7012 111.948 20.5504C112.105 20.3996 112.225 20.2134 112.308 19.9918L113.614 20.2273C113.51 20.612 113.322 20.949 113.051 21.2383C112.783 21.5245 112.446 21.7476 112.04 21.9077C111.637 22.0646 111.177 22.1431 110.66 22.1431Z" fill="#6868F7"/>
<rect x="0.5" y="0.5" width="130" height="33" rx="4.5" stroke="#6868F7" stroke-opacity="0.3"/>
</svg>
